<?xml version="1.0" standalone="no"?>
<!DOCTYPE svg PUBLIC "-//W3C//DTD SVG 20010904//EN"
 "http://www.w3.org/TR/2001/REC-SVG-20010904/DTD/svg10.dtd">
<svg version="1.0" xmlns="http://www.w3.org/2000/svg"
 width="267.000000pt" height="267.000000pt" viewBox="0 0 267.000000 267.000000"
 preserveAspectRatio="xMidYMid meet">
<metadata>
Created by potrace 1.11, written by Peter Selinger 2001-2013
</metadata>
<g transform="translate(0.000000,267.000000) scale(0.100000,-0.100000)"
fill="#000000" stroke="none">
<path d="M0 1335 l0 -1335 1335 0 1335 0 0 1335 0 1335 -1335 0 -1335 0 0
-1335z m947 741 c40 -18 80 -47 111 -80 48 -50 88 -113 79 -122 -2 -3 -53 -24
-113 -48 l-108 -44 -17 37 c-34 76 -99 108 -204 99 -135 -11 -203 -130 -193
-333 6 -105 28 -164 79 -211 43 -40 86 -54 163 -54 86 0 143 30 174 90 40 80
35 85 -100 88 l-118 3 0 79 0 80 220 0 220 0 0 -260 0 -260 -85 0 -85 0 0 56
0 56 -41 -37 c-58 -52 -118 -76 -208 -82 -85 -6 -185 13 -253 48 -92 47 -172
155 -203 276 -20 76 -20 251 0 328 42 158 159 276 312 315 21 5 99 8 173 7
124 -3 140 -5 197 -31z m1008 -486 c126 -19 216 -74 263 -164 24 -46 27 -61
27 -156 0 -85 -4 -113 -21 -150 -26 -56 -73 -104 -130 -133 l-43 -22 122 -190
c68 -104 126 -196 130 -202 7 -10 -24 -13 -140 -13 l-148 0 -110 190 -110 190
-82 0 -83 0 0 -190 0 -190 -130 0 -130 0 0 520 0 520 258 0 c141 0 288 -5 327
-10z"/>
<path d="M1630 1266 l0 -136 128 0 c182 0 222 24 222 135 0 100 -43 126 -222
133 l-128 5 0 -137z"/>
</g>
</svg>
