<?xml version="1.0" standalone="no"?>
<!DOCTYPE svg PUBLIC "-//W3C//DTD SVG 20010904//EN"
 "http://www.w3.org/TR/2001/REC-SVG-20010904/DTD/svg10.dtd">
<svg version="1.0" xmlns="http://www.w3.org/2000/svg"
 width="260.000000pt" height="260.000000pt" viewBox="0 0 260.000000 260.000000"
 preserveAspectRatio="xMidYMid meet">
<metadata>
Created by potrace 1.11, written by Peter Selinger 2001-2013
</metadata>
<g transform="translate(0.000000,260.000000) scale(0.100000,-0.100000)"
fill="#000000" stroke="none">
<path d="M1040 2494 c-14 -2 -59 -9 -100 -15 -134 -20 -316 -92 -432 -170
-284 -193 -453 -478 -498 -843 -15 -118 -8 -314 15 -434 57 -297 229 -569 453
-720 253 -171 529 -236 857 -202 388 39 727 275 885 613 92 196 124 349 125
577 0 186 -12 268 -60 416 -117 357 -361 605 -715 726 -130 44 -400 71 -530
52z m762 -544 c113 -32 170 -165 115 -271 -24 -48 -693 -961 -742 -1014 -58
-63 -178 -70 -255 -15 -32 23 -414 504 -438 552 -24 49 -20 118 11 170 32 55
108 98 172 98 77 0 120 -33 243 -185 62 -77 117 -140 122 -140 5 0 131 167
280 370 149 204 285 382 301 396 51 45 120 58 191 39z"/>
</g>
</svg>
