<svg xmlns="http://www.w3.org/2000/svg" viewBox="0 0 182.59 49.26"><g data-name="Layer 2"><g data-name="Layer 1"><path d="M180.22 17.66a19.49 19.49 0 00-7.37-7.93 20.21 20.21 0 00-10.93-3 20.49 20.49 0 00-10.54 2.78c-.71.4-1.55 1.1-1.89-1.18A10.34 10.34 0 00139.38 0a10.51 10.51 0 00-7.09 2.74l-.14.12L132 3a10.22 10.22 0 00-2.94 5.85l-.09.06a10.38 10.38 0 00-12 0 10.19 10.19 0 00-2 1.79 11 11 0 00-1.73-1.61A10.4 10.4 0 00107 7a10.67 10.67 0 00-6.26 2 10.31 10.31 0 00-1.89 1.72 10.56 10.56 0 00-8-3.71 10 10 0 00-6.67 2.51 21.6 21.6 0 00-21.55.1h-.06A19.8 19.8 0 0060 11.53c-.15-.16-.29-.33-.44-.48-2-2-5.65-4.4-11.74-4.4a19.09 19.09 0 00-6.92 1.28A10.14 10.14 0 0036.62 7a10.49 10.49 0 00-5.24 1.41 10 10 0 00-5.23-1.48 9.89 9.89 0 00-5.59 1.73A10.23 10.23 0 0017.66 3a10.16 10.16 0 00-7.23-3 10.53 10.53 0 00-7.16 2.8A10.08 10.08 0 000 10.25v28.36a10.2 10.2 0 003.09 7.33 10.35 10.35 0 0014.51 0 9 9 0 00.78-.86 10 10 0 008 3.88 10.22 10.22 0 005.12-1.35 10.16 10.16 0 005 1.3 10.29 10.29 0 007.27-3 11 11 0 001.29-1.53 11.21 11.21 0 001.26 1.51 10.36 10.36 0 0014.51 0c.18-.17.34-.36.51-.54.4.29.82.57 1.25.83a21.37 21.37 0 0021.84 0A19.85 19.85 0 0088.51 43a11 11 0 003.18 3.71 10.85 10.85 0 006.56 2.19h.1a11.06 11.06 0 006.54-2.12 10.69 10.69 0 002.1-2 11.49 11.49 0 002.01 1.98 11 11 0 006.55 2.15 11 11 0 0010.56-7.79l2.89-8.77V35a14 14 0 003.8 10.13 13.6 13.6 0 0010.31 4.07 16.5 16.5 0 006.78-1.31l.15-.07.15-.07a11.62 11.62 0 001.66-1 20.62 20.62 0 0010 2.49 20.18 20.18 0 0010.93-3 19.48 19.48 0 007.41-8 22.78 22.78 0 002.37-10.26 22.78 22.78 0 00-2.34-10.32zm-24.4 22.16z" fill="#12172c"/><path d="M173.06 21.24a15.35 15.35 0 010 13.36 11.55 11.55 0 01-4.46 4.81 12.33 12.33 0 01-6.72 1.83 12.58 12.58 0 01-6.77-1.83 11.48 11.48 0 01-4.46-4.81 14.65 14.65 0 01-1.53-6.68 14.65 14.65 0 011.53-6.68 11.62 11.62 0 014.46-4.77 12.58 12.58 0 016.77-1.83 12.33 12.33 0 016.72 1.83 11.69 11.69 0 014.46 4.77zm-3.28 6.68a9.85 9.85 0 00-2.14-6.46 6.87 6.87 0 00-5.76-2.67 7 7 0 00-5.81 2.67 10.17 10.17 0 00-2.14 6.46 10.31 10.31 0 002.14 6.51 7 7 0 005.81 2.66 6.89 6.89 0 005.76-2.66 10.08 10.08 0 002.14-6.51zM147.33 37.4a1.76 1.76 0 01.57 1.35 2 2 0 01-1.31 1.88 8.55 8.55 0 01-3.5.61 5.88 5.88 0 01-4.54-1.61A6.22 6.22 0 01137 35V19.31h-2.49a2 2 0 01-2.06-2 1.82 1.82 0 01.62-1.4 1.94 1.94 0 011.44-.56H137v-5a2.25 2.25 0 01.7-1.61 2.42 2.42 0 011.7-.66 2.2 2.2 0 011.62.7 2.17 2.17 0 01.65 1.57v5h3.5a2 2 0 011.44.56 2.14 2.14 0 01.57 1.49 1.87 1.87 0 01-.57 1.4 2 2 0 01-1.44.56h-3.5V34a3.7 3.7 0 00.7 2.31 2.14 2.14 0 001.79.83 4.32 4.32 0 00.92-.13 4.36 4.36 0 01.83-.13 1.94 1.94 0 011.42.52z" fill="#8c93b3"/><path d="M8 38.61V10.25a2.08 2.08 0 01.72-1.58A2.39 2.39 0 0110.43 8a2.19 2.19 0 011.57.68 2.16 2.16 0 01.67 1.57v17.94l12-12.59a2.17 2.17 0 013.71 1.51 2.13 2.13 0 01-.56 1.43l-7.92 8.22 8.35 10.49a2.05 2.05 0 01.46 1.36 2.37 2.37 0 01-.65 1.62 2.13 2.13 0 01-1.66.77 2 2 0 01-1.81-1l-8-10.37-3.87 3.94v5a2.19 2.19 0 01-.72 1.66 2.34 2.34 0 01-3.3 0 2.19 2.19 0 01-.7-1.62zM34.19 38.61V17.24a2.08 2.08 0 01.72-1.59 2.39 2.39 0 011.71-.65 2.19 2.19 0 011.58.68 2.16 2.16 0 01.67 1.58v1.61a12.31 12.31 0 013.86-3 11 11 0 015.1-1.23q4 0 6.09 2.06t2 6.08v15.83a2.19 2.19 0 01-.69 1.62 2.29 2.29 0 01-1.68.68 2.32 2.32 0 01-2.31-2.3V24.35c0-2-.47-3.42-1.4-4.27a5.67 5.67 0 00-4-1.28 8.07 8.07 0 00-4 1.07 9.22 9.22 0 00-3 2.64v16.1a2.19 2.19 0 01-.69 1.62 2.34 2.34 0 01-3.3 0 2.19 2.19 0 01-.66-1.62zM84.73 21.26a12 12 0 00-4.45-4.81 13.62 13.62 0 00-13.5 0 12 12 0 00-4.46 4.81 14.28 14.28 0 00-1.53 6.68 14.54 14.54 0 001.53 6.68 11.55 11.55 0 004.46 4.81 13.36 13.36 0 0013.5 0 11.52 11.52 0 004.45-4.81 14.93 14.93 0 001.53-6.68 14.65 14.65 0 00-1.53-6.68zm-3.27 2.84l-7.65 10.61a2.11 2.11 0 01-1.7.92 2.25 2.25 0 01-1.75-.83l-4-5.2a2.18 2.18 0 013.41-2.71L72 29.82l5.94-8.26A2.18 2.18 0 0181 21a2.22 2.22 0 01.46 3.1zM88.66 17.24a2.24 2.24 0 01.64-1.57 2.08 2.08 0 011.58-.67 2.48 2.48 0 011.41.44 2.12 2.12 0 01.87 1.12l5.41 18.1 5.9-17.89a2.58 2.58 0 011-1.28A2.69 2.69 0 01107 15a2.41 2.41 0 011.47.49 2.58 2.58 0 01.94 1.28l6 17.89 5.38-18.1a1.91 1.91 0 01.8-1.12A2.38 2.38 0 01123 15a2.25 2.25 0 012.32 2.25 2.82 2.82 0 01-.11.61l-6.61 20.92a3 3 0 01-2.92 2.15 3 3 0 01-1.81-.6 3.07 3.07 0 01-1.13-1.55L107 21.1l-5.71 17.66a2.74 2.74 0 01-1.09 1.55 3.06 3.06 0 01-1.85.6h-.1a2.92 2.92 0 01-1.78-.6 3 3 0 01-1.11-1.55l-6.6-20.91a2.66 2.66 0 01-.1-.61z" fill="#fff"/></g></g></svg>